<!--?xml version="1.0" standalone="no"?-->
              <svg id="sw-js-blob-svg" viewBox="0 0 100 100" xmlns="http://www.w3.org/2000/svg" version="1.1">
                    <defs> 
                        <linearGradient id="sw-gradient" x1="0" x2="1" y1="1" y2="0">
                            <stop id="stop1" stop-color="rgba(248, 117, 55, 1)" offset="0%"></stop>
                            <stop id="stop2" stop-color="rgba(251, 168, 31, 1)" offset="100%"></stop>
                        </linearGradient>
                    </defs>
                <path fill="url(#sw-gradient)" d="M23.2,-36.8C28.9,-32.4,31.6,-24,34,-16.2C36.5,-8.5,38.7,-1.3,37.8,5.5C37,12.3,33,18.8,28.4,25.2C23.7,31.6,18.4,38,11.8,39.8C5.2,41.6,-2.7,38.8,-10,35.9C-17.4,33,-24.2,29.9,-29.8,25C-35.4,20,-39.7,13.2,-41.3,5.6C-42.9,-2,-41.7,-10.2,-38,-16.9C-34.3,-23.6,-28,-28.8,-21.3,-32.7C-14.5,-36.6,-7.3,-39.2,0.7,-40.4C8.7,-41.5,17.5,-41.2,23.2,-36.8Z" width="100%" height="100%" transform="translate(50 50)" stroke-width="0" style="transition: all 0.3s ease 0s;"></path>
              </svg>