<!--?xml version="1.0" standalone="no"?-->
              <svg id="sw-js-blob-svg" viewBox="0 0 100 100" xmlns="http://www.w3.org/2000/svg" version="1.1">
                    <defs> 
                        <linearGradient id="sw-gradient" x1="0" x2="1" y1="1" y2="0">
                            <stop id="stop1" stop-color="rgba(55, 61.674, 248, 1)" offset="0%"></stop>
                            <stop id="stop2" stop-color="rgba(116.745, 183.782, 240.272, 1)" offset="100%"></stop>
                        </linearGradient>
                    </defs>
                <path fill="url(#sw-gradient)" d="M21.9,-24.5C28.9,-20.3,35.4,-13.8,38.5,-5.4C41.6,3,41.4,13.4,36.4,20.1C31.4,26.8,21.7,29.8,12.5,32.1C3.4,34.5,-5.2,36.2,-12,33.5C-18.7,30.7,-23.6,23.6,-27.8,16.2C-31.9,8.7,-35.3,0.9,-34,-5.9C-32.6,-12.7,-26.5,-18.5,-20.1,-22.8C-13.7,-27.1,-6.8,-29.9,0.3,-30.3C7.5,-30.7,15,-28.7,21.9,-24.5Z" width="100%" height="100%" transform="translate(50 50)" stroke-width="0" style="transition: all 0.3s ease 0s;"></path>
              </svg>