<!--?xml version="1.0" standalone="no"?-->
              <svg id="sw-js-blob-svg" viewBox="0 0 100 100" xmlns="http://www.w3.org/2000/svg" version="1.1">
                    <defs> 
                        <linearGradient id="sw-gradient" x1="0" x2="1" y1="1" y2="0">
                            <stop id="stop1" stop-color="rgba(55, 61.674, 248, 1)" offset="0%"></stop>
                            <stop id="stop2" stop-color="rgba(116.745, 183.782, 240.272, 1)" offset="100%"></stop>
                        </linearGradient>
                    </defs>
                <path fill="url(#sw-gradient)" d="M20.7,-25.5C23.1,-22.6,18.7,-12.6,19.5,-4C20.4,4.5,26.3,11.6,26.1,18C25.9,24.3,19.4,30,13.1,29.4C6.8,28.9,0.6,22.1,-6.6,19.1C-13.8,16.1,-22.1,16.8,-24.2,13.7C-26.4,10.6,-22.4,3.7,-22,-4.8C-21.7,-13.4,-24.9,-23.5,-21.9,-26.3C-18.8,-29.1,-9.4,-24.5,-0.1,-24.4C9.1,-24.2,18.3,-28.4,20.7,-25.5Z" width="100%" height="100%" transform="translate(50 50)" stroke-width="0" style="transition: all 0.3s ease 0s;"></path>
              </svg>